<?xml version="1.0" encoding="UTF-8" standalone="no"?>
<!DOCTYPE svg PUBLIC "-//W3C//DTD SVG 1.1//EN"
 "http://www.w3.org/Graphics/SVG/1.1/DTD/svg11.dtd">
<!-- Generated by graphviz version 2.47.0 (20210316.0004)
 -->
<!-- Title: dependencies Pages: 1 -->
<svg width="1083pt" height="279pt"
 viewBox="0.00 0.00 1083.00 279.00" xmlns="http://www.w3.org/2000/svg" xmlns:xlink="http://www.w3.org/1999/xlink">
<g id="graph0" class="graph" transform="scale(1 1) rotate(0) translate(4 275)">
<title>dependencies</title>
<polygon fill="white" stroke="transparent" points="-4,4 -4,-275 1079,-275 1079,4 -4,4"/>
<text text-anchor="start" x="516.51" y="-42.4" font-family="Times-12" font-weight="bold" font-size="14.00">Legend</text>
<polygon fill="#ffffb3" stroke="transparent" points="303.5,-10 303.5,-30 323.5,-30 323.5,-10 303.5,-10"/>
<text text-anchor="start" x="327.13" y="-15.4" font-family="Times-12" font-size="14.00"> &#160;Declarations</text>
<polygon fill="#8dd3c7" stroke="transparent" points="416.5,-10 416.5,-30 436.5,-30 436.5,-10 416.5,-10"/>
<text text-anchor="start" x="440.23" y="-15.4" font-family="Times-12" font-size="14.00"> &#160;Module</text>
<polygon fill="#80b1d3" stroke="transparent" points="502.5,-10 502.5,-30 522.5,-30 522.5,-10 502.5,-10"/>
<text text-anchor="start" x="526.28" y="-15.4" font-family="Times-12" font-size="14.00"> &#160;Bootstrap</text>
<polygon fill="#fdb462" stroke="transparent" points="599.5,-10 599.5,-30 619.5,-30 619.5,-10 599.5,-10"/>
<text text-anchor="start" x="623.17" y="-15.4" font-family="Times-12" font-size="14.00"> &#160;Providers</text>
<polygon fill="#fb8072" stroke="transparent" points="695.5,-10 695.5,-30 715.5,-30 715.5,-10 695.5,-10"/>
<text text-anchor="start" x="719.23" y="-15.4" font-family="Times-12" font-size="14.00"> &#160;Exports</text>
<g id="clust1" class="cluster">
<title>cluster_AppModule</title>
<polygon fill="none" stroke="black" stroke-dasharray="1,5" points="8,-70 8,-263 513,-263 513,-70 8,-70"/>
</g>
<g id="clust3" class="cluster">
<title>cluster_AppModule_imports</title>
<polygon fill="none" stroke="black" points="292,-78 292,-198 505,-198 505,-78 292,-78"/>
</g>
<g id="clust6" class="cluster">
<title>cluster_AppModule_providers</title>
<polygon fill="none" stroke="black" points="16,-78 16,-130 284,-130 284,-78 16,-78"/>
</g>
<g id="clust7" class="cluster">
<title>cluster_AuthModule</title>
<polygon fill="none" stroke="black" stroke-dasharray="1,5" points="521,-138 521,-206 785,-206 785,-138 521,-138"/>
</g>
<g id="clust10" class="cluster">
<title>cluster_AuthModule_exports</title>
<polygon fill="none" stroke="black" points="671,-146 671,-198 777,-198 777,-146 671,-146"/>
</g>
<g id="clust12" class="cluster">
<title>cluster_AuthModule_providers</title>
<polygon fill="none" stroke="black" points="529,-146 529,-198 663,-198 663,-146 529,-146"/>
</g>
<g id="clust19" class="cluster">
<title>cluster_UsersModule</title>
<polygon fill="none" stroke="black" stroke-dasharray="1,5" points="793,-138 793,-206 1067,-206 1067,-138 793,-138"/>
</g>
<g id="clust22" class="cluster">
<title>cluster_UsersModule_exports</title>
<polygon fill="none" stroke="black" points="949,-146 949,-198 1059,-198 1059,-146 949,-146"/>
</g>
<g id="clust24" class="cluster">
<title>cluster_UsersModule_providers</title>
<polygon fill="none" stroke="black" points="801,-146 801,-198 941,-198 941,-146 801,-146"/>
</g>
<!-- AuthModule -->
<g id="node1" class="node">
<title>AuthModule</title>
<polygon fill="#8dd3c7" stroke="black" points="387.55,-122 384.55,-126 363.55,-126 360.55,-122 300.45,-122 300.45,-86 387.55,-86 387.55,-122"/>
<text text-anchor="middle" x="344" y="-99.8" font-family="Times,serif" font-size="14.00">AuthModule</text>
</g>
<!-- AppModule -->
<g id="node4" class="node">
<title>AppModule</title>
<polygon fill="#8dd3c7" stroke="black" points="386.66,-255 383.66,-259 362.66,-259 359.66,-255 303.34,-255 303.34,-219 386.66,-219 386.66,-255"/>
<text text-anchor="middle" x="345" y="-232.8" font-family="Times,serif" font-size="14.00">AppModule</text>
</g>
<!-- AuthModule&#45;&gt;AppModule -->
<g id="edge1" class="edge">
<title>AuthModule&#45;&gt;AppModule</title>
<path fill="none" stroke="black" d="M387.74,-110C392.01,-110 394.8,-110 394.8,-110 394.8,-110 394.8,-231 394.8,-231 394.8,-231 394.02,-231 394.02,-231"/>
<polygon fill="black" stroke="black" points="397.02,-227.5 387.02,-231 397.02,-234.5 397.02,-227.5"/>
</g>
<!-- AuthService  -->
<g id="node7" class="node">
<title>AuthService </title>
<polygon fill="#fb8072" stroke="black" points="768.98,-190 679.02,-190 679.02,-154 768.98,-154 768.98,-190"/>
<text text-anchor="middle" x="724" y="-167.8" font-family="Times,serif" font-size="14.00">AuthService </text>
</g>
<!-- AuthModule&#45;&gt;AuthService  -->
<g id="edge6" class="edge">
<title>AuthModule&#45;&gt;AuthService </title>
<path fill="none" stroke="black" stroke-dasharray="5,2" d="M344.11,-122.19C344.11,-130.28 344.11,-138 344.11,-138 344.11,-138 724,-138 724,-138 724,-138 724,-143.81 724,-143.81"/>
<polygon fill="black" stroke="black" points="720.5,-143.81 724,-153.81 727.5,-143.81 720.5,-143.81"/>
</g>
<!-- PostsModule -->
<g id="node2" class="node">
<title>PostsModule</title>
<polygon fill="#8dd3c7" stroke="black" points="389.61,-190 386.61,-194 365.61,-194 362.61,-190 300.39,-190 300.39,-154 389.61,-154 389.61,-190"/>
<text text-anchor="middle" x="345" y="-167.8" font-family="Times,serif" font-size="14.00">PostsModule</text>
</g>
<!-- PostsModule&#45;&gt;AppModule -->
<g id="edge2" class="edge">
<title>PostsModule&#45;&gt;AppModule</title>
<path fill="none" stroke="black" d="M345,-190.11C345,-190.11 345,-208.99 345,-208.99"/>
<polygon fill="black" stroke="black" points="341.5,-208.99 345,-218.99 348.5,-208.99 341.5,-208.99"/>
</g>
<!-- UsersModule -->
<g id="node3" class="node">
<title>UsersModule</title>
<polygon fill="#8dd3c7" stroke="black" points="496.92,-122 493.92,-126 472.92,-126 469.92,-122 405.08,-122 405.08,-86 496.92,-86 496.92,-122"/>
<text text-anchor="middle" x="451" y="-99.8" font-family="Times,serif" font-size="14.00">UsersModule</text>
</g>
<!-- UsersModule&#45;&gt;PostsModule -->
<g id="edge8" class="edge">
<title>UsersModule&#45;&gt;PostsModule</title>
<path fill="none" stroke="black" d="M435.76,-122.27C435.76,-140.56 435.76,-166 435.76,-166 435.76,-166 399.58,-166 399.58,-166"/>
<polygon fill="black" stroke="black" points="399.58,-162.5 389.58,-166 399.58,-169.5 399.58,-162.5"/>
</g>
<!-- UsersModule&#45;&gt;AppModule -->
<g id="edge3" class="edge">
<title>UsersModule&#45;&gt;AppModule</title>
<path fill="none" stroke="black" d="M466.24,-122.17C466.24,-159.85 466.24,-243 466.24,-243 466.24,-243 396.72,-243 396.72,-243"/>
<polygon fill="black" stroke="black" points="396.72,-239.5 386.72,-243 396.72,-246.5 396.72,-239.5"/>
</g>
<!-- UsersService  -->
<g id="node9" class="node">
<title>UsersService </title>
<polygon fill="#fb8072" stroke="black" points="1050.85,-190 957.15,-190 957.15,-154 1050.85,-154 1050.85,-190"/>
<text text-anchor="middle" x="1004" y="-167.8" font-family="Times,serif" font-size="14.00">UsersService </text>
</g>
<!-- UsersModule&#45;&gt;UsersService  -->
<g id="edge10" class="edge">
<title>UsersModule&#45;&gt;UsersService </title>
<path fill="none" stroke="black" stroke-dasharray="5,2" d="M496.72,-98C629.22,-98 1004,-98 1004,-98 1004,-98 1004,-143.71 1004,-143.71"/>
<polygon fill="black" stroke="black" points="1000.5,-143.71 1004,-153.71 1007.5,-143.71 1000.5,-143.71"/>
</g>
<!-- AppService -->
<g id="node5" class="node">
<title>AppService</title>
<ellipse fill="#fdb462" stroke="black" cx="81" cy="-104" rx="56.74" ry="18"/>
<text text-anchor="middle" x="81" y="-99.8" font-family="Times,serif" font-size="14.00">AppService</text>
</g>
<!-- AppService&#45;&gt;AppModule -->
<g id="edge4" class="edge">
<title>AppService&#45;&gt;AppModule</title>
<path fill="none" stroke="black" d="M81,-122.17C81,-159.85 81,-243 81,-243 81,-243 293.17,-243 293.17,-243"/>
<polygon fill="black" stroke="black" points="293.17,-246.5 303.17,-243 293.17,-239.5 293.17,-246.5"/>
</g>
<!-- PostsService -->
<g id="node6" class="node">
<title>PostsService</title>
<ellipse fill="#fdb462" stroke="black" cx="216" cy="-104" rx="60.27" ry="18"/>
<text text-anchor="middle" x="216" y="-99.8" font-family="Times,serif" font-size="14.00">PostsService</text>
</g>
<!-- PostsService&#45;&gt;PostsModule -->
<g id="edge9" class="edge">
<title>PostsService&#45;&gt;PostsModule</title>
<path fill="none" stroke="black" d="M236.13,-121.16C236.13,-141.3 236.13,-172 236.13,-172 236.13,-172 290.4,-172 290.4,-172"/>
<polygon fill="black" stroke="black" points="290.4,-175.5 300.4,-172 290.4,-168.5 290.4,-175.5"/>
</g>
<!-- PostsService&#45;&gt;AppModule -->
<g id="edge5" class="edge">
<title>PostsService&#45;&gt;AppModule</title>
<path fill="none" stroke="black" d="M195.87,-121.13C195.87,-155.79 195.87,-231 195.87,-231 195.87,-231 293.06,-231 293.06,-231"/>
<polygon fill="black" stroke="black" points="293.06,-234.5 303.06,-231 293.06,-227.5 293.06,-234.5"/>
</g>
<!-- AuthService -->
<g id="node8" class="node">
<title>AuthService</title>
<ellipse fill="#fdb462" stroke="black" cx="596" cy="-172" rx="59.11" ry="18"/>
<text text-anchor="middle" x="596" y="-167.8" font-family="Times,serif" font-size="14.00">AuthService</text>
</g>
<!-- AuthService&#45;&gt;AuthModule -->
<g id="edge7" class="edge">
<title>AuthService&#45;&gt;AuthModule</title>
<path fill="none" stroke="black" d="M539.85,-178C481.94,-178 400.05,-178 400.05,-178 400.05,-178 400.05,-98 400.05,-98 400.05,-98 397.61,-98 397.61,-98"/>
<polygon fill="black" stroke="black" points="397.61,-94.5 387.61,-98 397.61,-101.5 397.61,-94.5"/>
</g>
<!-- UsersService -->
<g id="node10" class="node">
<title>UsersService</title>
<ellipse fill="#fdb462" stroke="black" cx="871" cy="-172" rx="61.95" ry="18"/>
<text text-anchor="middle" x="871" y="-167.8" font-family="Times,serif" font-size="14.00">UsersService</text>
</g>
<!-- UsersService&#45;&gt;UsersModule -->
<g id="edge11" class="edge">
<title>UsersService&#45;&gt;UsersModule</title>
<path fill="none" stroke="black" d="M871,-153.73C871,-135.44 871,-110 871,-110 871,-110 506.75,-110 506.75,-110"/>
<polygon fill="black" stroke="black" points="506.75,-106.5 496.75,-110 506.75,-113.5 506.75,-106.5"/>
</g>
</g>
</svg>
